PathFileType	4	(X/Y/Z)	/Users/niels/Desktop/University/Third Semester/Perception and Action/Exam/Gymnastics Motion Tracking/Code for Gym Tracking/Analyzed Data/Webcam_Backflip/id2001_2_trajectory_Sports2D/id2001_2_trajectory_Sports2D_px_person00.trc
DataRate	CameraRate	NumFrames	NumMarkers	Units	OrigDataRate	OrigDataStartFrame	OrigNumFrames
29.887218045112782	29.887218045112782	12	22	m	29.887218045112782	166	266
Frame#	Time	Hip			RHip			RKnee			RAnkle			RBigToe			RSmallToe			RHeel			LHip			LKnee			LAnkle			LBigToe			LSmallToe			LHeel			Neck			Head			Nose			RShoulder			RElbow			RWrist			LShoulder			LElbow			LWrist		
		X1	Y1	Z1	X2	Y2	Z2	X3	Y3	Z3	X4	Y4	Z4	X5	Y5	Z5	X6	Y6	Z6	X7	Y7	Z7	X8	Y8	Z8	X9	Y9	Z9	X10	Y10	Z10	X11	Y11	Z11	X12	Y12	Z12	X13	Y13	Z13	X14	Y14	Z14	X15	Y15	Z15	X16	Y16	Z16	X17	Y17	Z17	X18	Y18	Z18	X19	Y19	Z19	X20	Y20	Z20	X21	Y21	Z21	X22	Y22	Z22
166	5.554213836477988	0.843971977454001	-0.7349820232013569	0.0	0.8141517993752593	-0.7472048382508234	0.0	0.8874670692383541	-1.0619114620958672	0.0	0.6888947057079884	-0.9858180466820994	0.0	0.5140441809811581	-1.0249119169718097	0.0	0.5327181923207324	-0.9970337093743348	0.0	0.6330056870086077	-0.9618155712154546	0.0	0.8784928143795692	-0.7497406206006175	0.0	0.9518475310308415	-1.0353795732600384	0.0	0.7040900757378739	-0.9781015306262579	0.0	0.5616924929154956	-0.9736632298349406	0.0	0.5708997341575431	-1.012891784509662	0.0	0.6827601079943615	-0.9553001644242	0.0	1.3111993497824659	-0.7972982877490096	0.0	1.540068018297788	-0.8798273071584168	0.0	1.411028367510755	-0.925173410926962	0.0	1.2592815281706629	-0.7611338659248567	0.0	1.0612812165075507	-0.660620184895088	0.0	0.8794254059329578	-0.7849081030333281	0.0	1.2857213124125841	-0.769636547962574	0.0	1.0875337076979144	-0.6984534437032355	0.0	0.969675401921289	-0.8249046285733997	0.0
167	5.587672955974844	0.843759754068074	-0.7351319180414585	0.0	0.8139731138714462	-0.746305692122045	0.0	0.8861193435636747	-1.0616072180164844	0.0	0.688692389652203	-0.9875758698812397	0.0	0.5158688188415189	-1.028939413239098	0.0	0.5252901202728955	-0.9959271624128906	0.0	0.6445329926565176	-0.9634198637226348	0.0	0.8799358295023316	-0.7507557892165776	0.0	0.9492469496076759	-1.0340067819027814	0.0	0.7052182179924273	-0.9779559789242848	0.0	0.5467355516063549	-0.9713295736821304	0.0	0.5725369910452398	-1.0114710207174307	0.0	0.684910828147357	-0.9568052984683134	0.0	1.3092739282546229	-0.8081740048079469	0.0	1.535458985711423	-0.8953195592349952	0.0	1.4060597560399344	-0.9366549787050723	0.0	1.2596620398954068	-0.7722177927016078	0.0	1.0634408485113673	-0.6667990115212263	0.0	0.8797621366892926	-0.7865278479294399	0.0	1.2843400350811176	-0.7785686363079591	0.0	1.0864971317178551	-0.7027479082542312	0.0	0.9652914091170557	-0.8251199803316717	0.0
168	5.621132075471699	0.8426111793655541	-0.7357756511332947	0.0	0.8128542051157093	-0.7462791684606455	0.0	0.888426759584607	-1.0614689380859081	0.0	0.6878786704844536	-0.9908957841583932	0.0	0.5177198711693985	-1.0352722212214143	0.0	0.5203046377540675	-0.9964799110046237	0.0	0.6565743345408755	-0.965787142241687	0.0	0.8794022891031715	-0.7517131028023808	0.0	0.9474304638864383	-1.0332483424502286	0.0	0.7063737494709564	-0.9782372377470113	0.0	0.5379199997915901	-0.9700334456600652	0.0	0.5861609896205727	-1.0111782382699	0.0	0.6865498392065397	-0.9584631162300727	0.0	1.3072178441374964	-0.8184507595745248	0.0	1.530786484356064	-0.9101681471166044	0.0	1.401137866975047	-0.9478464357481532	0.0	1.2601801226380487	-0.7836484375032762	0.0	1.0662449133860616	-0.6727670288249906	0.0	0.8806488273209179	-0.7884359439960763	0.0	1.2825032063417328	-0.7867502444064834	0.0	1.086271811381117	-0.7066477995867236	0.0	0.9601693174636409	-0.8235508873688363	0.0
169	5.654591194968554	0.8400967265886214	-0.7369834456751791	0.0	0.8106057223856292	-0.7474651161322752	0.0	0.8937765377538432	-1.0616070045660426	0.0	0.6865988735124413	-0.9952501412293874	0.0	0.5188209693004053	-1.0407111702203182	0.0	0.517833394913189	-0.9985823439899787	0.0	0.6656292286788728	-0.9691591439337007	0.0	0.8757927886892379	-0.7524603530074259	0.0	0.9461722801797158	-1.0327313665787288	0.0	0.7070323756855706	-0.9791846149760454	0.0	0.5404683248715078	-0.9700090310523511	0.0	0.6106149717923334	-1.012585370532943	0.0	0.6866374485688342	-0.9606482810545616	0.0	1.304903196503006	-0.82828705401252	0.0	1.5260166889823117	-0.9238531506001633	0.0	1.396529159311807	-0.9588761820329382	0.0	1.260835637980803	-0.795279050207914	0.0	1.0694968457385154	-0.6784164288649465	0.0	0.881776546375991	-0.7905745314153455	0.0	1.2803708853185136	-0.7939029085505387	0.0	1.0863103839274686	-0.7092549853161979	0.0	0.9531937484165278	-0.8204208930236004	0.0
170	5.68805031446541	0.8365415052817397	-0.7385319355284965	0.0	0.8076850106754504	-0.7496804975061483	0.0	0.900512072412481	-1.0619570834282865	0.0	0.6852699745590282	-0.9995900724106356	0.0	0.5191278675805836	-1.0409725468056372	0.0	0.5179364611480531	-1.001417554024094	0.0	0.6707123301886103	-0.9728246081542646	0.0	0.8695718660325855	-0.7528286290131144	0.0	0.9453352785064947	-1.0319816845131329	0.0	0.7071695416548849	-0.9802687773105484	0.0	0.5571433864525327	-0.9709497340010947	0.0	0.6392830822866632	-1.0145748546348516	0.0	0.6850303006313364	-0.9629768370106326	0.0	1.302385811419218	-0.8376829487053106	0.0	1.5213006346030942	-0.9361949897725939	0.0	1.3924206356404887	-0.9696939683867548	0.0	1.261446260002394	-0.8066400651310762	0.0	1.072986855107198	-0.683824229940484	0.0	0.8829143194730915	-0.7926638129497041	0.0	1.278254049762876	-0.7999618721184572	0.0	1.0866011544449505	-0.710683966432377	0.0	0.9457833918302702	-0.8167855134030709	0.0
171	5.721509433962265	0.8327849940998072	-0.7400740418075727	0.0	0.8047571493181988	-0.7523119503552042	0.0	0.9068101095377934	-1.0624180428280512	0.0	0.6842939524598911	-1.0028609216698106	0.0	0.519087514934864	-1.0343315046950936	0.0	0.5210422310110668	-1.003777201541795	0.0	0.6726251942443694	-0.9754974010342929	0.0	0.8625762983370874	-0.7528317904599859	0.0	0.9449861473780998	-1.0309784765437797	0.0	0.7072565698736554	-0.9805043432160776	0.0	0.5859354542890345	-0.972081086430591	0.0	0.6642169835222566	-1.0152295216887481	0.0	0.6827089901340135	-0.9644055496703512	0.0	1.2998824683169177	-0.8464669750006609	0.0	1.5168968154797053	-0.9472276042700046	0.0	1.3888327110957719	-0.9799634167822366	0.0	1.2615987894430216	-0.81715178677332	0.0	1.0765062151200953	-0.6891405881906831	0.0	0.8839407131017797	-0.7944313735026456	0.0	1.2764255666338435	-0.8051390707256584	0.0	1.0874097211556013	-0.7115454907678084	0.0	0.9398828697855572	-0.8139359429546681	0.0
172	5.75496855345912	0.8296809554769117	-0.741393915301554	0.0	0.8023236131018489	-0.7547324660930135	0.0	0.9114451236222665	-1.0629004067573948	0.0	0.6836782698589723	-1.0047513177935175	0.0	0.5195145479670579	-1.0236548284347833	0.0	0.5278615021483853	-1.0051493681590296	0.0	0.6727948291733106	-0.9766616858676579	0.0	0.8568363471553022	-0.7526840524972036	0.0	0.9451865608256412	-1.0298514629505722	0.0	0.7077642333990634	-0.9794168540096874	0.0	0.6187942407655128	-0.9728411287662431	0.0	0.681005273531151	-1.0138204264963233	0.0	0.6809333189738118	-0.9642669167651634	0.0	1.297549556461206	-0.8544311835777052	0.0	1.5130307498525661	-0.957004981981723	0.0	1.3856117354355173	-0.9892374049450595	0.0	1.260967231416791	-0.8264118373843514	0.0	1.079849395634368	-0.694437498425195	0.0	0.8848262026041087	-0.7958157549962311	0.0	1.275011556612222	-0.8097463779689301	0.0	1.0888889669907573	-0.7124298376161945	0.0	0.9363375458493026	-0.8126174565863369	0.0
173	5.788427672955976	0.827784779460489	-0.7424467149488693	0.0	0.8007133270285967	-0.7565420361720171	0.0	0.9140600908085251	-1.063308094597279	0.0	0.6830487583452094	-1.0058735769519875	0.0	0.5216526442015704	-1.0142397629502027	0.0	0.5389031218996168	-1.006208565511576	0.0	0.6721007150301264	-0.9771595278042352	0.0	0.8535457703459008	-0.7525987595732992	0.0	0.9458315176474658	-1.0285922765281812	0.0	0.7086991814829594	-0.9776208257574952	0.0	0.6440276296564996	-0.9733109273326266	0.0	0.6894153806777665	-1.0114012312215566	0.0	0.680189687554201	-0.9630644771890717	0.0	1.2953989578453193	-0.861379896855429	0.0	1.5098466124801782	-0.9655219585133843	0.0	1.3825649816065875	-0.9971992020196526	0.0	1.2596284996845728	-0.834210983143415	0.0	1.082796565268593	-0.6996275228328998	0.0	0.8855821750279121	-0.7969786928481931	0.0	1.273975104168831	-0.8139995844278708	0.0	1.0909992632518064	-0.7136833184917823	0.0	0.9350082299955046	-0.8128708505668978	0.0
174	5.8218867924528315	0.8272450409722107	-0.7432383750170306	0.0	0.8001132426803128	-0.7575806462431306	0.0	0.9150212087577252	-1.0636102955766569	0.0	0.6820729994377988	-1.0070077140233542	0.0	0.5268696661062913	-1.0094160457712882	0.0	0.5531065682299273	-1.0077166433651181	0.0	0.6706882562667371	-0.9780137420365105	0.0	0.852856793263576	-0.7525050748320199	0.0	0.9466908446495046	-1.027210939901771	0.0	0.7096909910865826	-0.9760949413643357	0.0	0.6526348501610973	-0.9738719900278836	0.0	0.6915609850797553	-1.0094272493253023	0.0	0.6800470884662175	-0.9619575654307679	0.0	1.2934158539396248	-0.8671577007535459	0.0	1.5073796189549975	-0.9727197366446141	0.0	1.3796375620004997	-1.0037128206032961	0.0	1.2579488129761496	-0.8405040742633004	0.0	1.0851531526692981	-0.7044827332684347	0.0	0.8861849631034315	-0.7981446331298965	0.0	1.2732129602621702	-0.8179141348366417	0.0	1.0936591464089773	-0.7154006546018072	0.0	0.935475557155872	-0.814386332165731	0.0
175	5.855345911949686	0.8278481433103874	-0.7437431423207499	0.0	0.8005229814848491	-0.757926875074075	0.0	0.9150900554339	-1.0638854935596065	0.0	0.6807681824722702	-1.0083455386147602	0.0	0.5357104344425352	-1.0083462116853	0.0	0.5669938417899966	-1.0093504858551379	0.0	0.6686400907121599	-0.9790937676873493	0.0	0.8542710269442834	-0.7520422182946852	0.0	0.9474841827142195	-1.0258032013118112	0.0	0.7104910848418159	-0.9749958469296442	0.0	0.6429785347551499	-0.9746289653660748	0.0	0.6902051271528705	-1.008341525114025	0.0	0.6799204593783361	-0.9616507521254029	0.0	1.291627422056894	-0.8716798534565539	0.0	1.5055333980449883	-0.9785422544472343	0.0	1.3769233290830911	-1.0087578374025952	0.0	1.2563056632107743	-0.8454416725999878	0.0	1.0868312793351689	-0.7087280476505252	0.0	0.8865727830906394	-0.7994532575200131	0.0	1.2726962284502217	-0.8212286839570605	0.0	1.0967012890037309	-0.7174268769081461	0.0	0.9373455615506749	-0.8168287203726897	0.0
176	5.888805031446542	0.8291742553580294	-0.7439012985955972	0.0	0.801771690535273	-0.7578088480164579	0.0	0.9150598346781069	-1.0642202147837	0.0	0.6794534130566394	-1.0094341687213164	0.0	0.5465524371612608	-1.0076447794674133	0.0	0.5764607563843339	-1.0098904600104415	0.0	0.666394187639714	-0.9793401016822457	0.0	0.85704401643762	-0.7508747129202167	0.0	0.9480235183134749	-1.0244152845614758	0.0	0.7111611087410207	-0.9736151462355882	0.0	0.6198738462583526	-0.9753317432816748	0.0	0.6874878007311347	-1.0075515589230608	0.0	0.6796543315731535	-0.9620634227506527	0.0	1.2900792293942853	-0.8749431431134442	0.0	1.5041457589958471	-0.9829875462175739	0.0	1.3745678342166143	-1.0123659766192625	0.0	1.2549814746147872	-0.8492698466936965	0.0	1.087903426398204	-0.7121383110549915	0.0	0.8867162530376307	-0.8009082550385471	0.0	1.2724678318662983	-0.8235312872551622	0.0	1.0997150401419278	-0.719436155795836	0.0	0.9406061584198092	-0.8200308733378943	0.0
177	5.9222641509433975	0.8307855761445619	-0.7436863746397274	0.0	0.8035872628089421	-0.7574422442055155	0.0	0.9154312928916036	-1.0646281045646067	0.0	0.6785519492977529	-1.0095869740731167	0.0	0.5553867301496815	-1.0045613654486731	0.0	0.5790290314759128	-1.0083422548010035	0.0	0.6646320948259153	-0.9777095954566162	0.0	0.8603578672820232	-0.7489870784773541	0.0	0.9482775940736164	-1.0230974228675107	0.0	0.7118571622063701	-0.9712768381708614	0.0	0.5899720206541038	-0.9756410845205735	0.0	0.6845064373482608	-1.0061827329846997	0.0	0.6794567072661162	-0.9627351625744112	0.0	1.2888252477613193	-0.8770380016986534	0.0	1.503099765777886	-0.9860858365806586	0.0	1.372744340614622	-1.0145995548530085	0.0	1.2541422551548422	-0.8521491045454769	0.0	1.08858131814615	-0.7146245643138007	0.0	0.8866755050531145	-0.8023624593752045	0.0	1.2725086416360665	-0.8245877594893005	0.0	1.1021253349946893	-0.7211201683503257	0.0	0.9455080637023767	-0.8238576733776292	0.0
